<svg width="1477" height="837" viewBox="0 0 1477 837" fill="none" xmlns="http://www.w3.org/2000/svg">
<path d="M0.425598 0.667236H1476.32V757.252C1476.32 757.252 1314.86 847.778 1161.77 835.058C959.787 818.276 730.884 713.153 426.128 739.113C201.977 758.206 0.425598 794.484 0.425598 804.031V0.667236Z" fill="url(#paint0_linear)"/>
<path d="M206.16 592.625C71.2293 592.625 62.0851 476.856 7.28952 447.575C-12.6948 424.676 -3.61802 374.898 192.563 358.981C328.582 347.945 151.859 217.932 105.594 141.849C68.4487 80.7625 200.563 -52.3216 229.98 23.9741C290.481 180.89 425.799 252.368 569.686 275.643C713.573 298.917 724.353 307.673 772.424 326.469C907.802 379.4 912.057 385.031 980.519 431.955C1048.98 478.88 1087.27 575.357 1167.34 604.638C1320.88 660.789 1417.98 561.843 1476 519.798V694.733C1420.43 717.132 1223.66 816.437 1108.55 800.219C964.66 779.948 876.935 620.25 721.755 557.338C599.528 507.785 346.023 592.625 206.16 592.625Z" fill="white" fill-opacity="0.06"/>
<defs>
<linearGradient id="paint0_linear" x1="1388.69" y1="-285.26" x2="-33.8295" y2="290.034" gradientUnits="userSpaceOnUse">
<stop stop-color="#73C5ED"/>
<stop offset="0.264065" stop-color="#5C6BCF"/>
<stop offset="0.535758" stop-color="#5C6CD0"/>
<stop offset="1" stop-color="#44228C"/>
</linearGradient>
</defs>
</svg>
