<svg width="29" height="49" viewBox="0 0 29 49" fill="none" xmlns="http://www.w3.org/2000/svg">
<path d="M27.2509 26.4345C26.434 24.8746 25.2954 23.6313 24.1017 22.7103C21.9894 21.0987 19.7644 20.3302 17.7126 19.7143C16.1724 19.2654 14.6982 18.92 13.411 18.566C12.4484 18.3041 11.593 18.0365 10.9137 17.7573C9.88228 17.3457 9.34595 16.9198 9.18368 16.7068L9.00216 16.3845C8.95815 16.2406 8.89489 15.9931 8.89489 15.5355C8.89489 15.2419 8.9499 14.8649 9.07917 14.5167C9.27719 13.9871 9.56598 13.541 10.1656 13.1237C10.7706 12.715 11.8075 12.2747 13.7383 12.2661C16.5574 12.2603 18.1664 12.9712 18.8595 13.5525C19.2198 13.849 19.4013 14.108 19.5361 14.3929C19.6654 14.6807 19.7506 15.0261 19.7561 15.5355H28.6453C28.6481 13.7799 28.2988 12.0042 27.5562 10.381C26.4533 7.93179 24.462 5.95172 22.0609 4.74583C21.0378 4.22491 19.9294 3.84789 18.7687 3.56009V0H9.87953V3.39317C9.14793 3.5601 8.43283 3.76155 7.76448 4.02633C5.10487 5.07392 3.03934 6.95038 1.78517 9.05996C0.519997 11.1782 0.00292595 13.4374 0.000175572 15.5355C-0.0108259 17.6479 0.495246 19.7345 1.50463 21.4354C2.3765 22.9262 3.55641 24.0572 4.74732 24.8775C6.85686 26.3078 9.00766 26.9583 11.0072 27.5281C12.5089 27.9426 13.9363 28.2735 15.1822 28.639C16.1119 28.9096 16.9342 29.1916 17.5861 29.4852C18.5762 29.9313 19.0823 30.3687 19.3161 30.6882C19.4371 30.8551 19.5251 31.0134 19.6076 31.2753C19.6874 31.5401 19.7616 31.9257 19.7616 32.5186C19.7589 33.3734 19.6076 33.7907 19.4783 34.0526C19.3738 34.2483 19.2611 34.3979 19.0493 34.5821C18.733 34.8526 18.1389 35.1807 17.2203 35.4167C16.3099 35.6556 15.108 35.7966 13.7466 35.7938C11.659 35.7909 10.4268 35.1922 9.79701 34.6282C9.47247 34.3404 9.27719 34.0526 9.13142 33.7273C8.9884 33.4021 8.90314 33.0222 8.89764 32.5186H0.00842741C0.00567704 34.2742 0.352225 36.0182 1.04807 37.6011C2.08221 39.9841 3.90296 41.9498 6.12526 43.2132C7.28592 43.8723 8.55109 44.3501 9.89053 44.6609V48.1346H18.7797V44.5861C20.0037 44.3126 21.2111 43.9126 22.3717 43.314C24.1182 42.4276 25.7877 41.0375 26.9401 39.1207C28.1035 37.2097 28.6673 34.8929 28.6563 32.5186C28.6563 30.3255 28.1915 28.2131 27.2509 26.4345Z" fill="#FAFAFA"/>
</svg>
