<svg width="1600" height="839" viewBox="0 0 1600 839" fill="none" xmlns="http://www.w3.org/2000/svg">
<path d="M91.5 560C-82.923 560 -94.7436 405.804 -165.577 366.804C-191.41 336.304 -179.677 270.004 73.923 248.804C249.752 234.105 21.3059 60.9366 -38.5 -40.4002C-86.5175 -121.762 84.264 -299.02 122.291 -197.4C200.5 11.6 375.423 106.804 561.423 137.804C747.423 168.804 761.359 180.466 823.5 205.5C998.5 276 1004 283.5 1092.5 346C1181 408.5 1230.5 537 1334 576C1532.48 650.789 1658 519 1733 463V696C1661.17 725.833 1406.8 858.1 1258 836.5C1072 809.5 958.599 596.794 758 513C600 447 272.299 560 91.5 560Z" fill="white" fill-opacity="0.06"/>
</svg>
