<svg width="220" height="228" viewBox="0 0 220 228" fill="none" xmlns="http://www.w3.org/2000/svg">
<path d="M15.2613 46.5916L13.4947 24.1443L33.8179 33.838L15.2613 46.5916Z" stroke="white" stroke-opacity="0.4" stroke-width="2"/>
<path d="M156.661 24.7672L162.062 9.51477L178.237 9.93833L182.832 25.4525L169.498 34.6172L156.661 24.7672Z" stroke="white" stroke-opacity="0.4" stroke-width="2"/>
<line x1="0.707107" y1="116" x2="27" y2="142.293" stroke="white" stroke-opacity="0.4" stroke-linecap="round"/>
<path d="M172.565 190.742L181.169 186.857M181.177 186.837L177.921 179M167.445 203.143L176.249 199.7L172.609 190.939" stroke="white" stroke-opacity="0.4" stroke-linecap="round"/>
<circle cx="124" cy="134" r="2" fill="white" fill-opacity="0.4"/>
<path d="M52.9097 208.747L66 199.236L79.0903 208.747L74.0902 224.135H57.9098L52.9097 208.747Z" stroke="white" stroke-opacity="0.4" stroke-width="2"/>
<path d="M88.9015 20.2879L84.8077 28.7944M84.8145 28.8147L92.3469 32.7249M84.8526 7.49701L80.3218 15.7935L88.7417 20.1644" stroke="white" stroke-opacity="0.4" stroke-linecap="round"/>
<rect x="201.947" y="89.6434" width="18" height="18" transform="rotate(20.5 201.947 89.6434)" stroke="white" stroke-opacity="0.4"/>
</svg>
