<svg width="42" height="42" viewBox="0 0 42 42" fill="none" xmlns="http://www.w3.org/2000/svg">
<path d="M21 0C9.4208 0 0 9.4208 0 21C0 32.5791 9.4208 41.9999 21 41.9999C32.5791 41.9999 41.9999 32.5791 41.9999 21C41.9999 9.4208 32.5792 0 21 0ZM21 38.3478C11.4349 38.3478 3.65211 30.565 3.65211 21C3.65211 11.4349 11.4349 3.6522 21 3.6522C30.565 3.6522 38.3478 11.4349 38.3478 21C38.3478 30.565 30.565 38.3478 21 38.3478Z" fill="#FAFAFA"/>
<path d="M30.7768 11.2249C30.5121 10.9583 30.1122 10.8816 29.7706 11.0314L16.9881 16.5097C16.7726 16.601 16.6009 16.7744 16.5078 16.9899L11.0295 29.7725C10.8816 30.1159 10.9583 30.5139 11.2231 30.7787C11.3984 30.9503 11.6321 31.0435 11.8695 31.0435C11.99 31.0435 12.1123 31.0179 12.2293 30.9705L25.0118 25.4922C25.2273 25.3991 25.399 25.2274 25.4921 25.0119L30.9704 12.2293C31.1165 11.886 31.0398 11.4879 30.7768 11.2249ZM21 22.8261C19.9938 22.8261 19.1739 22.0061 19.1739 21C19.1739 19.9938 19.9938 19.174 21 19.174C22.0062 19.174 22.826 19.9939 22.826 21C22.8261 22.0061 22.0062 22.8261 21 22.8261Z" fill="white"/>
</svg>
