<svg width="42" height="44" viewBox="0 0 42 44" fill="none" xmlns="http://www.w3.org/2000/svg">
<path d="M33.6 17.5796C38.232 17.5796 42 13.6368 42 8.78982C42 3.94283 38.232 0 33.6 0C30.2364 0 27.3362 2.08408 25.996 5.07911L23.7467 4.21036C23.7733 4.0301 23.8 3.84984 23.8 3.66242C23.8 1.64308 22.2298 0 20.3 0C18.3702 0 16.8 1.64308 16.8 3.66242C16.8 5.68177 18.3702 7.32485 20.3 7.32485C21.5537 7.32485 22.6471 6.62527 23.2651 5.58591L25.5107 6.45324C25.3135 7.19895 25.2 7.97972 25.2 8.78982C25.2 9.74942 25.3524 10.6707 25.6255 11.5359L17.9269 14.9501C16.5173 12.1615 13.7194 10.2548 10.5 10.2548C9.45684 10.2548 8.46152 10.4644 7.53901 10.8292L5.60273 6.57126C6.44629 5.90173 7 4.85271 7 3.66242C7 1.64308 5.42979 0 3.5 0C1.57021 0 0 1.64308 0 3.66242C0 5.68177 1.57021 7.32485 3.5 7.32485C3.79121 7.32485 4.07046 7.27657 4.3415 7.20539L6.27539 11.459C3.78267 12.9855 2.1 15.8099 2.1 19.0446C2.1 22.0829 3.58135 24.7646 5.82695 26.3437L4.54658 28.7522C4.21333 28.6424 3.86675 28.5669 3.5 28.5669C1.57021 28.5669 0 30.21 0 32.2293C0 34.2487 1.57021 35.8918 3.5 35.8918C5.42979 35.8918 7 34.2487 7 32.2293C7 31.1202 6.51636 30.1367 5.77021 29.465L7.05332 27.0515C8.10605 27.5501 9.2709 27.8344 10.5 27.8344C12.4209 27.8344 14.1876 27.1488 15.6044 26.0089L18.3596 29.1807C16.9624 30.7511 16.1 32.8492 16.1 35.1593C16.1 35.6074 16.1427 36.0441 16.2042 36.474L12.9626 37.2791C12.4048 36.0309 11.2014 35.1593 9.8 35.1593C7.87021 35.1593 6.3 36.8024 6.3 38.8217C6.3 40.841 7.87021 42.4841 9.8 42.4841C11.7298 42.4841 13.3 40.841 13.3 38.8217C13.3 38.7813 13.2894 38.7434 13.2887 38.703L16.5242 37.9004C17.6275 41.4079 20.783 43.9491 24.5 43.9491C29.132 43.9491 32.9 40.0063 32.9 35.1593C32.9 33.6564 32.5367 32.2411 31.8982 31.0033L36.01 28.2057C36.6458 28.8795 37.5262 29.2994 38.5 29.2994C40.4298 29.2994 42 27.6563 42 25.637C42 23.6176 40.4298 21.9745 38.5 21.9745C36.5702 21.9745 35 23.6176 35 25.637C35 26.1102 35.093 26.5597 35.2499 26.9753L31.1285 29.779C30.3037 28.6696 29.2329 27.7736 28 27.1788L31.4166 17.2678C32.1139 17.4645 32.8439 17.5796 33.6 17.5796ZM20.3 5.85988C19.1423 5.85988 18.2 4.87381 18.2 3.66242C18.2 2.45103 19.1423 1.46497 20.3 1.46497C21.4577 1.46497 22.4 2.45103 22.4 3.66242C22.4 4.87381 21.4577 5.85988 20.3 5.85988ZM1.4 3.66242C1.4 2.45103 2.34233 1.46497 3.5 1.46497C4.65767 1.46497 5.6 2.45103 5.6 3.66242C5.6 4.87381 4.65767 5.85988 3.5 5.85988C2.34233 5.85988 1.4 4.87381 1.4 3.66242ZM3.5 34.4268C2.34233 34.4268 1.4 33.4407 1.4 32.2293C1.4 31.0179 2.34233 30.0319 3.5 30.0319C4.65767 30.0319 5.6 31.0179 5.6 32.2293C5.6 33.4407 4.65767 34.4268 3.5 34.4268ZM9.8 41.0192C8.64233 41.0192 7.7 40.0331 7.7 38.8217C7.7 37.6103 8.64233 36.6242 9.8 36.6242C10.9577 36.6242 11.9 37.6103 11.9 38.8217C11.9 40.0331 10.9577 41.0192 9.8 41.0192ZM38.5 23.4395C39.6577 23.4395 40.6 24.4256 40.6 25.637C40.6 26.8484 39.6577 27.8344 38.5 27.8344C37.3423 27.8344 36.4 26.8484 36.4 25.637C36.4 24.4256 37.3423 23.4395 38.5 23.4395ZM29.4776 14.6966C29.79 13.0023 31.2173 11.7198 32.9 11.7198H34.3C35.9827 11.7198 37.41 13.0023 37.7224 14.6966C36.5644 15.5835 35.1422 16.1147 33.6 16.1147C32.0578 16.1147 30.6356 15.5835 29.4776 14.6966ZM33.6 10.2548C32.4423 10.2548 31.5 9.26872 31.5 8.05733C31.5 6.84594 32.4423 5.85988 33.6 5.85988C34.7577 5.85988 35.7 6.84594 35.7 8.05733C35.7 9.26872 34.7577 10.2548 33.6 10.2548ZM33.6 1.46497C37.4599 1.46497 40.6 4.75078 40.6 8.78982C40.6 10.621 39.9496 12.2942 38.8835 13.5796C38.393 12.228 37.3704 11.1493 36.0961 10.6167C36.7158 9.95579 37.1 9.05341 37.1 8.05733C37.1 6.03799 35.5298 4.39491 33.6 4.39491C31.6702 4.39491 30.1 6.03799 30.1 8.05733C30.1 9.05341 30.4842 9.95579 31.1039 10.6167C29.8296 11.1493 28.807 12.228 28.3165 13.5796C27.2504 12.2942 26.6 10.621 26.6 8.78982C26.6 4.75078 29.7401 1.46497 33.6 1.46497ZM3.5 19.0446C3.5 15.0056 6.64009 11.7198 10.5 11.7198C14.3599 11.7198 17.5 15.0056 17.5 19.0446C17.5 20.8815 16.8455 22.559 15.7739 23.8462C15.2852 22.4896 14.2604 21.4055 12.9828 20.8715C13.6018 20.2106 13.986 19.3082 13.986 18.3121C13.986 16.2928 12.4158 14.6497 10.486 14.6497C8.5562 14.6497 6.98599 16.2928 6.98599 18.3121C6.98599 19.3082 7.37017 20.2106 7.98984 20.8715C6.71938 21.4016 5.6981 22.4763 5.20591 23.8226C4.146 22.5386 3.5 20.8708 3.5 19.0446ZM8.38599 18.3121C8.38599 17.1007 9.32832 16.1147 10.486 16.1147C11.6437 16.1147 12.586 17.1007 12.586 18.3121C12.586 19.5235 11.6437 20.5096 10.486 20.5096C9.32832 20.5096 8.38599 19.5235 8.38599 18.3121ZM6.36597 24.9417C6.68145 23.2521 8.10674 21.9745 9.78599 21.9745H11.186C12.8717 21.9745 14.3018 23.2614 14.6098 24.961C13.4542 25.8426 12.0364 26.3695 10.5 26.3695C8.95234 26.3695 7.52568 25.8348 6.36597 24.9417ZM20.366 41.0564C20.6814 39.3668 22.1067 38.0892 23.786 38.0892H25.186C26.8717 38.0892 28.3018 39.3761 28.6098 41.0757C27.4541 41.9573 26.0364 42.4841 24.5 42.4841C22.9523 42.4841 21.5257 41.9494 20.366 41.0564ZM24.486 36.6242C23.3283 36.6242 22.386 35.6382 22.386 34.4268C22.386 33.2154 23.3283 32.2293 24.486 32.2293C25.6437 32.2293 26.586 33.2154 26.586 34.4268C26.586 35.6382 25.6437 36.6242 24.486 36.6242ZM31.5 35.1593C31.5 36.9962 30.8455 38.6736 29.7739 39.9608C29.2852 38.6042 28.2604 37.5202 26.9828 36.9862C27.6018 36.3252 27.986 35.4229 27.986 34.4268C27.986 32.4075 26.4158 30.7644 24.486 30.7644C22.5562 30.7644 20.986 32.4075 20.986 34.4268C20.986 35.4229 21.3702 36.3252 21.9898 36.9862C20.7194 37.5162 19.6981 38.591 19.2059 39.9372C18.146 38.6532 17.5 36.9855 17.5 35.1593C17.5 31.1202 20.6401 27.8344 24.5 27.8344C28.3599 27.8344 31.5 31.1202 31.5 35.1593ZM26.6834 26.6813C25.9861 26.4846 25.2561 26.3695 24.5 26.3695C22.5791 26.3695 20.8124 27.0551 19.3956 28.1949L16.6404 25.0232C18.0376 23.4528 18.9 21.3547 18.9 19.0446C18.9 18.085 18.7476 17.1637 18.4745 16.2985L26.1731 12.8843C27.0354 14.5903 28.4194 15.9594 30.1007 16.7703L26.6834 26.6813Z" fill="#FAFAFA"/>
</svg>
