<svg width="1533" height="406" viewBox="0 0 1533 406" fill="none" xmlns="http://www.w3.org/2000/svg">
<path d="M39.2613 262.592L37.4947 240.144L57.8179 249.838L39.2613 262.592Z" stroke="white" stroke-opacity="0.22" stroke-width="2"/>
<path d="M157.661 202.767L163.062 187.515L179.237 187.938L183.832 203.452L170.498 212.617L157.661 202.767Z" stroke="white" stroke-opacity="0.22" stroke-width="2"/>
<line x1="35.7071" y1="350" x2="62" y2="376.293" stroke="white" stroke-opacity="0.22" stroke-linecap="round"/>
<path d="M204.565 356.742L213.169 352.857M213.177 352.837L209.921 345M199.445 369.143L208.249 365.7L204.609 356.939" stroke="white" stroke-opacity="0.22" stroke-linecap="round"/>
<circle cx="152" cy="317" r="2" fill="white" fill-opacity="0.2"/>
<path d="M342.91 382.747L356 373.236L369.09 382.747L364.09 398.135H347.91L342.91 382.747Z" stroke="white" stroke-opacity="0.22" stroke-width="2"/>
<path d="M408.901 299.288L404.808 307.794M404.814 307.815L412.347 311.725M404.852 286.497L400.322 294.793L408.742 299.164" stroke="white" stroke-opacity="0.22" stroke-linecap="round"/>
<rect x="282.947" y="262.643" width="18" height="18" transform="rotate(20.5 282.947 262.643)" stroke="white" stroke-opacity="0.22"/>
<path d="M224.661 24.7672L230.062 9.51477L246.237 9.93833L250.832 25.4525L237.498 34.6172L224.661 24.7672Z" stroke="white" stroke-opacity="0.22" stroke-width="2"/>
<path d="M962.868 146.777L954.933 151.891M954.928 151.912L959.308 159.182M966.099 133.756L957.901 138.462L962.796 146.589" stroke="white" stroke-opacity="0.22" stroke-linecap="round"/>
<rect x="846.5" y="15.5" width="18" height="18" stroke="white" stroke-opacity="0.22"/>
<path d="M70.4029 32.7337L68.6363 10.2864L88.9595 19.9801L70.4029 32.7337Z" stroke="white" stroke-opacity="0.22" stroke-width="2"/>
<path d="M12.6227 141.665L21.6649 144.377M21.6839 144.367L24.3676 136.316M0.622681 147.665L9.52575 150.842L12.5258 141.842" stroke="white" stroke-opacity="0.22" stroke-linecap="round"/>
<circle cx="97.0001" cy="92" r="2" fill="white" fill-opacity="0.2"/>
<path d="M410.91 194.747L424 185.236L437.09 194.747L432.09 210.135H415.91L410.91 194.747Z" stroke="white" stroke-opacity="0.22" stroke-width="2"/>
<line x1="267.707" y1="124" x2="294" y2="150.293" stroke="white" stroke-opacity="0.22" stroke-linecap="round"/>
<rect x="371.5" y="61.5" width="18" height="18" stroke="white" stroke-opacity="0.22"/>
<path d="M535.901 37.2878L531.808 45.7943M531.814 45.8146L539.347 49.7248M531.852 24.4969L527.322 32.7934L535.742 37.1643" stroke="white" stroke-opacity="0.22" stroke-linecap="round"/>
<rect x="534.5" y="124.5" width="18" height="18" stroke="white" stroke-opacity="0.22"/>
<path d="M685.901 81.2878L681.808 89.7943M681.814 89.8146L689.347 93.7248M681.852 68.4969L677.322 76.7934L685.742 81.1643" stroke="white" stroke-opacity="0.22" stroke-linecap="round"/>
<path d="M1241.74 215.5L1253 196L1264.26 215.5H1241.74Z" stroke="white" stroke-opacity="0.22" stroke-width="2"/>
<path d="M811.261 162.592L809.495 140.144L829.818 149.838L811.261 162.592Z" stroke="white" stroke-opacity="0.22" stroke-width="2"/>
<path d="M1191.57 135.742L1200.17 131.857M1200.18 131.837L1196.92 124M1186.45 148.143L1195.25 144.7L1191.61 135.939" stroke="white" stroke-opacity="0.22" stroke-linecap="round"/>
<path d="M1493.57 209.742L1502.17 205.857M1502.18 205.837L1498.92 198M1488.45 222.143L1497.25 218.7L1493.61 209.939" stroke="white" stroke-opacity="0.22" stroke-linecap="round"/>
<rect x="1362.95" y="166.643" width="18" height="18" transform="rotate(20.5 1362.95 166.643)" stroke="white" stroke-opacity="0.22"/>
<path d="M1077.66 179.767L1083.06 164.515L1099.24 164.938L1103.83 180.452L1090.5 189.617L1077.66 179.767Z" stroke="white" stroke-opacity="0.22" stroke-width="2"/>
<line x1="1346.34" y1="274.157" x2="1323.45" y2="303.458" stroke="white" stroke-opacity="0.22" stroke-linecap="round"/>
<path d="M1198.78 297.994L1205.78 304.335M1205.8 304.334L1211.69 298.222M1185.37 298.243L1192.04 304.944L1198.62 298.112" stroke="white" stroke-opacity="0.22" stroke-linecap="round"/>
<circle cx="1177" cy="376" r="2" fill="white" fill-opacity="0.2"/>
<path d="M1506.26 137.592L1504.49 115.144L1524.82 124.838L1506.26 137.592Z" stroke="white" stroke-opacity="0.22" stroke-width="2"/>
<line x1="1432.71" y1="353" x2="1459" y2="379.293" stroke="white" stroke-opacity="0.22" stroke-linecap="round"/>
<path d="M1513.9 287.288L1509.81 295.794M1509.81 295.815L1517.35 299.725M1509.85 274.497L1505.32 282.793L1513.74 287.164" stroke="white" stroke-opacity="0.22" stroke-linecap="round"/>
<rect x="1279.95" y="373.643" width="18" height="18" transform="rotate(20.5 1279.95 373.643)" stroke="white" stroke-opacity="0.22"/>
<line x1="681.594" y1="372.702" x2="658.702" y2="402.003" stroke="white" stroke-opacity="0.22" stroke-linecap="round"/>
<circle cx="485" cy="390" r="2" fill="white" fill-opacity="0.2"/>
<line x1="1050.59" y1="374.702" x2="1027.7" y2="404.003" stroke="white" stroke-opacity="0.22" stroke-linecap="round"/>
<path d="M834.901 392.288L830.808 400.794M830.814 400.815L838.347 404.725M830.852 379.497L826.322 387.793L834.742 392.164" stroke="white" stroke-opacity="0.22" stroke-linecap="round"/>
</svg>
